<svg id="Capa_1" enable-background="new 0 0 512 512" height="44px" viewBox="0 0 512 512" width="44px" xmlns="http://www.w3.org/2000/svg"><g><path d="m440.671 394.906c-6.224-14.054-17.548-24.843-31.887-30.379-6.924-2.674-14.108-3.927-21.197-3.869v-88.272c0-18.507 5.09-36.642 14.72-52.445 7.396-12.137 11.306-26.064 11.306-40.276 0-24.233-11.574-47.38-30.96-61.92-9.438-7.079-16.782-16.595-21.239-27.519l-10.89-26.696c-15.74-38.593-52.843-63.53-94.524-63.53-41.68 0-78.783 24.937-94.525 63.53l-10.889 26.695c-4.456 10.924-11.8 20.44-21.239 27.519-19.386 14.54-30.96 37.688-30.96 61.92 0 14.212 3.909 28.14 11.305 40.276 9.63 15.804 14.721 33.939 14.721 52.445v88.273c-7.089-.058-14.274 1.195-21.198 3.868-14.338 5.537-25.663 16.326-31.886 30.379-6.224 14.054-6.602 29.69-1.065 44.028l7.795 20.188c6.037 15.634 16.534 28.908 30.355 38.388 13.821 9.481 29.986 14.491 46.745 14.491h201.682c16.76 0 32.924-5.01 46.745-14.489s24.318-22.753 30.355-38.388l7.795-20.188c5.537-14.338 5.158-29.975-1.065-44.029zm-107.035-293.35c6.508 15.954 17.233 29.851 31.017 40.188 11.872 8.904 18.96 23.08 18.96 37.92 0 8.704-2.395 17.232-6.924 24.665-12.496 20.508-19.102 44.042-19.102 68.057v97.01c-6.278 3.918-11.876 9.085-16.379 15.399l-6.303 8.837h-7.318v-49.803c0-87.023-3.8-175.103-11.294-261.79l-1.926-22.284c3.329 4.61 6.16 9.661 8.38 15.104zm-115.136 85.897h75.001c.843 16.233 1.557 32.48 2.139 48.727h-79.279c.582-16.247 1.295-32.494 2.139-48.727zm-3.069 78.726h81.139c.422 16.259.711 32.506.869 48.727h-82.877c.157-16.221.447-32.468.869-48.727zm72.947-157.452c1.268 16.207 2.406 32.454 3.414 48.726h-71.583c1.008-16.272 2.146-32.519 3.414-48.726zm-73.965 236.179h83.173v48.726h-83.173zm41.587-314.906c9.13 0 17.947 1.697 26.101 4.848l3.793 43.878h-59.788l3.793-43.878c8.154-3.15 16.972-4.848 26.101-4.848zm-120.689 174.329c-4.529-7.433-6.923-15.961-6.923-24.665 0-14.84 7.088-29.016 18.96-37.92 13.784-10.338 24.51-24.235 31.017-40.189l10.889-26.695c2.22-5.443 5.051-10.494 8.381-15.104l-1.926 22.282c-7.495 86.692-11.294 174.771-11.294 261.792v49.801h-7.319l-6.302-8.836c-4.503-6.314-10.102-11.481-16.379-15.399v-97.011c-.002-24.014-6.607-47.548-19.104-68.056zm278.439 223.799-7.795 20.188c-7.779 20.147-27.518 33.684-49.114 33.684h-201.682c-21.597 0-41.334-13.536-49.114-33.684l-7.796-20.188c-2.65-6.863-2.469-14.347.51-21.074s8.399-11.891 15.262-14.542c3.242-1.251 6.6-1.853 9.921-1.853 8.705 0 17.136 4.139 22.425 11.555l15.274 21.417h188.714l15.276-21.417c7.307-10.246 20.606-14.233 32.345-9.702 6.863 2.65 12.284 7.814 15.263 14.541 2.981 6.728 3.161 14.212.511 21.075z"/></g></svg>