<svg id="Capa_1" enable-background="new 0 0 512 512" height="44px" viewBox="0 0 512 512" width="44px" xmlns="http://www.w3.org/2000/svg"><path d="m462.571 41.929c-22.027 0-40.728 14.486-47.095 34.429h-193.905c-34.413 0-66.68 9.347-94.414 25.621-8.424-15.259-24.673-25.621-43.301-25.621-27.255 0-49.428 22.174-49.428 49.429 0 18.628 10.362 34.877 25.621 43.3-16.274 27.734-25.621 60-25.621 94.414 0 18.716 2.774 36.793 7.911 53.857h-12.339v-19.429h-30v172.143h30v-19.429h191.571c34.413 0 66.68-9.347 94.414-25.621 8.424 15.259 24.673 25.621 43.301 25.621 27.255 0 49.429-22.174 49.429-49.429 0-18.628-10.362-34.877-25.621-43.3 16.274-27.734 25.621-60.001 25.621-94.414 0-18.454-2.651-36.487-7.873-53.857h14.635c6.367 19.943 25.068 34.429 47.095 34.429h49.428v-202.143zm-398.142 83.857c0-10.713 8.715-19.429 19.428-19.429 8.501 0 15.726 5.497 18.355 13.116-8.965 7.442-17.225 15.703-24.667 24.667-7.62-2.628-13.116-9.853-13.116-18.354zm-34.429 294.857v-73.285h24.302c15.038 29.875 37.842 55.193 65.751 73.285zm348.714-19.429c0 10.713-8.716 19.429-19.429 19.429-8.501 0-15.726-5.497-18.355-13.116 8.965-7.442 17.225-15.703 24.668-24.667 7.62 2.628 13.116 9.853 13.116 18.354zm0-137.714c0 86.648-70.494 157.143-157.143 157.143s-157.142-70.495-157.142-157.143 70.494-157.143 157.143-157.143h191.572v73.285h-191.573c-46.239 0-83.857 37.618-83.857 83.857s37.618 83.857 83.857 83.857 83.857-37.618 83.857-83.857c0-20.489-7.397-39.277-19.647-53.857h83.455c6.286 17.199 9.478 35.27 9.478 53.858zm-131.185-47.171-25.958 25.958-25.958-25.958c7.704-4.256 16.551-6.687 25.958-6.687 9.407.001 18.254 2.431 25.958 6.687zm-79.815 47.171c0-9.407 2.43-18.254 6.687-25.958l25.958 25.958-25.958 25.958c-4.256-7.704-6.687-16.551-6.687-25.958zm53.857 21.213 25.958 25.958c-7.704 4.256-16.551 6.687-25.958 6.687s-18.254-2.43-25.958-6.687zm53.858-21.213c0 9.407-2.43 18.254-6.687 25.958l-25.958-25.958 25.958-25.958c4.256 7.704 6.687 16.551 6.687 25.958zm206.571-49.429h-19.429c-10.713 0-19.428-8.716-19.428-19.429v-103.285c0-10.713 8.715-19.429 19.428-19.429h19.429z"/></svg>